<!-- Generated by IcoMoon.io -->
<svg version="1.1" xmlns="http://www.w3.org/2000/svg" width="1024" height="1024" viewBox="0 0 1024 1024">
<title></title>
<g id="icomoon-ignore">
</g>
<path fill="#000" d="M1015.603 806.502h-1007.206v128.205h29.901v59.187c0 16.589 13.517 30.106 30.106 30.106h42.394c16.589 0 30.106-13.517 30.106-30.106v-59.187h319.898v59.187c0 16.589 13.517 30.106 30.106 30.106h42.394c16.589 0 30.106-13.517 30.106-30.106v-59.187h319.898v59.187c0 16.589 13.517 30.106 30.106 30.106h42.394c16.589 0 30.106-13.517 30.106-30.106v-59.187h29.901v-128.205z"></path>
<path fill="#000" d="M8.397 0v771.482h1007.002v-771.482h-1007.002zM260.71 528.589h-171.213v-363.11h171.213v363.11z"></path>
<path fill="#000" d="M222.618 361.062h-95.027c-9.83 0-17.613-7.987-17.613-17.613v-14.336c0-9.83 7.987-17.613 17.613-17.613h95.027c9.83 0 17.613 7.987 17.613 17.613v14.336c0.205 9.83-7.782 17.613-17.613 17.613z"></path>
<path fill="#000" d="M222.618 262.144h-95.027c-9.83 0-17.613-7.987-17.613-17.613v-14.336c0-9.83 7.987-17.613 17.613-17.613h95.027c9.83 0 17.613 7.987 17.613 17.613v14.336c0.205 9.83-7.782 17.613-17.613 17.613z"></path>
<path fill="#000" d="M222.618 459.981h-95.027c-9.83 0-17.613-7.987-17.613-17.613v-14.336c0-9.83 7.987-17.613 17.613-17.613h95.027c9.83 0 17.613 7.987 17.613 17.613v14.336c0.205 9.626-7.782 17.613-17.613 17.613z"></path>
</svg>
